<svg width="52" height="53" viewBox="0 0 52 53" fill="none" xmlns="http://www.w3.org/2000/svg">
<circle cx="26" cy="26.9524" r="26" fill="#FFB9B9"/>
<g clip-path="url(#clip0)">
<path fill-rule="evenodd" clip-rule="evenodd" d="M42.9976 24.1963C43.1941 19.6565 31.9973 17.4461 31.5121 16.9287C31.2703 16.6713 32.0731 9.99505 26.0003 10C19.9276 9.99505 20.73 16.6713 20.4883 16.9287C20.0031 17.4461 8.80689 19.6565 9.00307 24.1963C9.19891 28.7364 15.1404 26.4046 16.4076 27.7408C17.516 28.9103 11.2127 36.3964 10.5076 41.15C10.2777 42.6994 10.7265 43 12.2779 43C15.0918 43 17.7781 42.9984 20.252 42.9984C21.3695 42.9984 21.767 42.375 22.3436 41.516C23.62 39.6145 25.1616 36.5581 26.0003 36.5584C26.8388 36.5581 28.3807 39.6145 29.657 41.5157C30.2337 42.375 30.6308 42.998 31.7484 42.998C34.2219 42.998 36.9086 42.9997 39.7224 42.9997C41.2738 42.9997 41.723 42.699 41.4928 41.1497C40.788 36.396 34.485 28.91 35.5928 27.7405C36.8599 26.4046 42.8021 28.7364 42.9976 24.1963Z" fill="#FD3A69"/>
</g>
<defs>
<clipPath id="clip0">
<rect width="34" height="33" fill="white" transform="translate(9 10)"/>
</clipPath>
</defs>
</svg>
