<svg width="75" height="76" viewBox="0 0 75 76" fill="none" xmlns="http://www.w3.org/2000/svg">
<path d="M43.127 15.6L46.7099 6.66723L40.6341 8.18283L37.5 0.369629L34.3671 8.18283L28.2913 6.66723L31.873 15.6H43.127ZM35.8204 11.0184L37.5 6.83043L39.1796 11.0172L42.7288 10.1328L41.498 13.2H33.502L32.2724 10.1328L35.8204 11.0184Z" fill="#FECD1A"/>
<path d="M74.922 75.7247L73.5456 60.6227L61.1895 49.5623C61.4217 49.0871 61.5625 48.5627 61.5625 47.9999C61.5625 47.5259 61.465 47.0759 61.2978 46.6607C62.8318 46.2455 63.9688 44.8596 63.9688 43.1999C63.9688 42.7259 63.8713 42.2759 63.7041 41.8607C65.238 41.4455 66.375 40.0595 66.375 38.3999C66.375 36.4151 64.7556 34.7999 62.7656 34.7999H53.1406V32.2079L56.7969 28.1435L60.3594 31.6967L65.67 26.4L60.8575 21.6L68.6646 13.8144L69.4345 10.7448C69.6174 10.7652 69.7955 10.8 69.9844 10.8C72.6385 10.8 74.7969 8.64715 74.7969 5.99995C74.7969 3.35275 72.6385 1.19995 69.9844 1.19995C67.3303 1.19995 65.1719 3.35275 65.1719 5.99995C65.1719 6.18835 65.2068 6.36715 65.2272 6.54955L62.1508 7.31635L54.3438 15.1032L49.5313 10.3032L44.2207 15.6L47.7831 19.1532L39.431 26.6292L37.5 24.7031L35.569 26.6292L27.2169 19.1532L30.7793 15.6L25.4688 10.3032L20.6562 15.1032L12.8492 7.31635L9.77278 6.54955C9.79323 6.36715 9.82812 6.18835 9.82812 5.99995C9.82812 3.35275 7.66972 1.19995 5.01562 1.19995C2.36153 1.19995 0.203122 3.35275 0.203122 5.99995C0.203122 8.64715 2.36153 10.8 5.01562 10.8C5.20451 10.8 5.38258 10.7652 5.56665 10.7448L6.33665 13.8144L14.1425 21.6L9.33003 26.4L14.6406 31.6967L18.2031 28.1435L21.8594 32.2079V34.7999H12.2344C10.2444 34.7999 8.625 36.4151 8.625 38.3999C8.625 40.0595 9.76195 41.4467 11.2959 41.8607C11.1287 42.2759 11.0312 42.7259 11.0312 43.1999C11.0312 44.8596 12.1682 46.2467 13.7022 46.6607C13.535 47.0759 13.4375 47.5259 13.4375 47.9999C13.4375 48.5627 13.5783 49.0871 13.8105 49.5623L1.45437 60.6227L0.0779972 75.7247L15.2205 74.3507L30.2415 57.6563C30.7023 57.9408 31.174 58.2108 31.6612 58.4543L37.5 61.3391L43.3424 58.4531C43.8284 58.2107 44.2989 57.9419 44.7585 57.6575L59.7795 74.3519L74.922 75.7247ZM72.0947 71.2079L52.4356 51.5999H57.9531C58.4993 51.5999 59.0119 51.4691 59.4751 51.2519L71.2344 61.7771L72.0947 71.2079ZM62.7656 37.1999C63.4285 37.1999 63.9688 37.7375 63.9688 38.3999C63.9688 39.0623 63.4285 39.5999 62.7656 39.5999H57.9531V42H60.3594C61.0223 42 61.5625 42.5375 61.5625 43.1999C61.5625 43.8624 61.0223 44.3999 60.3594 44.3999H55.5469V46.7999H57.9531C58.616 46.7999 59.1563 47.3375 59.1563 47.9999C59.1563 48.6623 58.616 49.1999 57.9531 49.1999H51.9989C52.7532 47.3279 53.1406 45.3383 53.1406 43.1999V37.1999H62.7656ZM53.1406 28.6152V27.5999H50.0293L53.1406 24.4967L55.0933 26.4444L53.1406 28.6152ZM69.9844 3.59995C71.3114 3.59995 72.3906 4.67635 72.3906 5.99995C72.3906 7.32355 71.3114 8.39995 69.9844 8.39995C68.6573 8.39995 67.5781 7.32355 67.5781 5.99995C67.5781 4.67635 68.6573 3.59995 69.9844 3.59995ZM67.1715 9.87715L66.6854 11.8128L64.1564 9.29035L66.0971 8.80555C66.3967 9.21715 66.7588 9.57835 67.1715 9.87715ZM62.1641 10.6967L65.2753 13.8L59.1563 19.9032L56.045 16.8L62.1641 10.6967ZM49.5313 13.6967L62.2675 26.4L60.3594 28.3032L47.6231 15.6L49.5313 13.6967ZM51.4394 22.7999L46.6269 27.5999H41.948L49.4867 20.8524L51.4394 22.7999ZM40.6113 31.1999L37.5 34.3032L34.3887 31.1999L37.5 28.0967L40.6113 31.1999ZM36.2969 36.4967V42H29.0781V34.7999H34.5957L36.2969 36.4967ZM36.2969 44.3999V53.2583L34.9397 52.5816C33.9171 52.0715 32.9895 51.4055 32.1834 50.6015C30.4858 48.9095 29.4439 46.7423 29.1623 44.4011H36.2969V44.3999ZM38.7031 44.3999H45.8377C45.5561 46.7411 44.5142 48.9083 42.8166 50.6003C42.0117 51.4043 41.0841 52.0715 40.0615 52.5803L38.7031 53.2583V44.3999ZM45.9219 42H38.7031V36.4967L40.4043 34.7999H45.9219V42ZM33.052 27.5999H28.3731L23.5606 22.7999L25.5133 20.8524L33.052 27.5999ZM2.60937 5.99995C2.60937 4.67635 3.68858 3.59995 5.01562 3.59995C6.34267 3.59995 7.42187 4.67635 7.42187 5.99995C7.42187 7.32355 6.34267 8.39995 5.01562 8.39995C3.68858 8.39995 2.60937 7.32355 2.60937 5.99995ZM8.90292 8.80555L10.8436 9.29035L8.31459 11.8128L7.82853 9.87715C8.2412 9.57835 8.60334 9.21715 8.90292 8.80555ZM9.72465 13.8L12.8359 10.6967L18.955 16.8L15.8437 19.9032L9.72465 13.8ZM12.7325 26.4L25.4688 13.6967L27.3769 15.6L14.6406 28.3032L12.7325 26.4ZM19.9067 26.4444L21.8594 24.4967L24.9707 27.5999H21.8594V28.6152L19.9067 26.4444ZM14.6406 42H17.0469V39.5999H12.2344C11.5715 39.5999 11.0312 39.0623 11.0312 38.3999C11.0312 37.7375 11.5715 37.1999 12.2344 37.1999H21.8594V43.1999C21.8594 45.3383 22.2468 47.3279 23.0011 49.1999H17.0469C16.384 49.1999 15.8437 48.6623 15.8437 47.9999C15.8437 47.3375 16.384 46.7999 17.0469 46.7999H19.4531V44.3999H14.6406C13.9777 44.3999 13.4375 43.8624 13.4375 43.1999C13.4375 42.5375 13.9777 42 14.6406 42ZM15.5249 51.2519C15.9893 51.4691 16.5007 51.5999 17.0469 51.5999H22.5644L2.90534 71.2079L3.76558 61.7771L15.5249 51.2519ZM14.0607 72.048L4.60656 72.9047L24.9141 52.6499C25.5265 53.4983 26.2219 54.3239 27.0244 55.1231C27.4226 55.5215 27.8449 55.8923 28.2768 56.2487L14.0607 72.048ZM42.2704 56.3039L37.5 58.6607L32.7332 56.3064C31.2486 55.5672 29.8999 54.5975 28.7256 53.4263C25.6829 50.3915 24.2656 47.1419 24.2656 43.1999V30H32.1894L30.9863 31.1999L32.1894 32.4H26.6719V43.1231C26.6719 46.59 28.0254 49.8479 30.4822 52.2983C31.4711 53.2847 32.6093 54.1031 33.8642 54.7283L37.5 56.5415L41.137 54.7271C42.3919 54.1019 43.5289 53.2836 44.5178 52.2971C46.9746 49.8467 48.3281 46.5887 48.3281 43.1231V32.4H42.8106L44.0137 31.1999L42.8106 30H50.7344V43.1999C50.7344 47.1419 49.3171 50.3915 46.2732 53.4251C45.1001 54.5975 43.7526 55.5671 42.2704 56.3039ZM47.9756 55.1231C48.7769 54.3239 49.4735 53.4983 50.0859 52.6499L70.3934 72.9047L60.9393 72.048L46.7232 56.2487C47.1563 55.8911 47.5774 55.5203 47.9756 55.1231Z" fill="#FECD1A"/>
</svg>
