<svg width="74" height="75" viewBox="0 0 74 75" fill="none" xmlns="http://www.w3.org/2000/svg">
<path d="M58.375 49.875C56.4109 49.875 54.8125 51.4734 54.8125 53.4375C54.8125 55.4016 56.4109 57 58.375 57C60.3391 57 61.9375 55.4016 61.9375 53.4375C61.9375 51.4734 60.3391 49.875 58.375 49.875ZM58.375 54.625C57.7195 54.625 57.1875 54.093 57.1875 53.4375C57.1875 52.782 57.7195 52.25 58.375 52.25C59.0305 52.25 59.5625 52.782 59.5625 53.4375C59.5625 54.093 59.0305 54.625 58.375 54.625Z" fill="#FECD1A"/>
<path d="M58.375 45.125C53.7924 45.125 50.0625 48.8549 50.0625 53.4375C50.0625 58.0201 53.7924 61.75 58.375 61.75C62.9576 61.75 66.6875 58.0201 66.6875 53.4375C66.6875 48.8549 62.9576 45.125 58.375 45.125ZM58.375 59.375C55.1011 59.375 52.4375 56.7114 52.4375 53.4375C52.4375 50.1636 55.1011 47.5 58.375 47.5C61.6489 47.5 64.3125 50.1636 64.3125 53.4375C64.3125 56.7114 61.6489 59.375 58.375 59.375Z" fill="#FECD1A"/>
<path d="M65.5 11.875H63.125C59.8511 11.875 57.1875 14.5386 57.1875 17.8125V26.125H21.1196C19.3419 15.2321 12.1801 5.8057 1.85 1.28726L0.1875 0.559326V2.37501C0.1875 16.6891 2.54706 22.7525 2.64681 23.0031L2.78338 23.3463L5.89819 25.422L4.84131 28.5903L6.95388 32.8178C9.317 37.5416 13.0909 41.4176 17.6984 43.9375H12.0625C10.7527 43.9375 9.6875 45.0027 9.6875 46.3125V48.6875C9.6875 49.9617 10.7004 50.9984 11.9616 51.0518C11.635 53.1656 10.4499 55.0632 8.63894 56.2709L7.14387 57.2672C5.76162 58.1899 4.9375 59.7325 4.9375 61.3926C4.9375 64.2046 5.80675 66.9097 7.45381 69.217L7.52387 69.312C9.98319 72.757 13.9815 74.8149 18.2173 74.8149L22.3938 74.8137C26.7186 74.8125 30.8001 72.7106 33.3128 69.1933C33.3864 69.09 33.4506 68.9807 33.5218 68.875H65.5C70.0826 68.875 73.8125 65.1451 73.8125 60.5625V20.1875C73.8125 15.6049 70.0826 11.875 65.5 11.875ZM63.125 14.25H65.5C68.7739 14.25 71.4375 16.9136 71.4375 20.1875C71.4375 22.1196 70.4958 23.8225 69.0625 24.9066V20.1875C69.0625 18.2234 67.4641 16.625 65.5 16.625H61.9375V21.172C60.5552 20.6815 59.5625 19.361 59.5625 17.8125C59.5625 15.8484 61.1609 14.25 63.125 14.25ZM66.6875 20.1875C66.6875 20.843 66.1555 21.375 65.5 21.375H64.3125V19H65.5C66.1555 19 66.6875 19.532 66.6875 20.1875ZM59.5625 22.5316C60.5576 23.2857 61.7831 23.75 63.125 23.75H65.5C65.918 23.75 66.3146 23.6645 66.6875 23.5315V26.0051C66.3039 26.0835 65.9061 26.125 65.5 26.125H59.5625V22.5316ZM9.0795 31.7549L7.4075 28.4086L8.72562 24.453L4.73919 21.7954C4.29981 20.4559 2.743 14.9803 2.57675 4.25839C12.7275 9.45133 19.1875 19.9203 19.1875 31.426V35.4683C15.2664 23.7465 8.64013 14.0814 8.28862 13.5743L6.33519 14.9269C6.43256 15.067 15.2581 27.9359 18.4821 41.6539C14.4601 39.3609 11.1648 35.9231 9.0795 31.7549ZM12.0625 46.3125H28.6875L28.6899 48.6875H12.0625V46.3125ZM8.462 59.2444L9.95706 58.2481C12.4294 56.5998 14.0207 53.9719 14.3639 51.0625H26.3861C26.7293 53.9719 28.3206 56.5986 30.7929 58.2481L32.288 59.2444C32.6122 59.4605 32.8663 59.7491 33.0599 60.0721C29.5936 61.9424 25.7128 62.9375 21.7632 62.9375H18.9868C15.0372 62.9375 11.1564 61.9424 7.68894 60.0721C7.88369 59.7479 8.13781 59.4605 8.462 59.2444ZM31.3807 67.8122C29.3121 70.7073 25.9527 72.4375 22.3938 72.4387L18.2173 72.4399C14.7463 72.4399 11.4711 70.7548 9.45356 67.9274L9.3835 67.8324C8.26844 66.2685 7.61294 64.4777 7.40631 62.6038C10.9997 64.3756 14.9624 65.3125 18.9868 65.3125H21.7632C25.7876 65.3125 29.7503 64.3756 33.3437 62.6026C33.1394 64.4765 32.4887 66.2613 31.3807 67.8122ZM71.4375 60.5625C71.4375 63.8364 68.7739 66.5 65.5 66.5H34.8043C35.4681 64.8921 35.8125 63.1655 35.8125 61.3926C35.8125 59.7325 34.9884 58.1899 33.6061 57.2672L32.1111 56.2709C30.3001 55.0632 29.115 53.1656 28.7884 51.0518C30.0496 50.9984 31.0625 49.9617 31.0625 48.6875V46.3125C31.0625 45.0027 29.9973 43.9375 28.6875 43.9375H21.5625V31.426C21.5625 30.4416 21.5043 29.4678 21.4176 28.5H65.5C67.8251 28.5 69.927 27.5381 71.4375 25.9932V60.5625Z" fill="#FECD1A"/>
<path d="M45.4336 51.73L41.5469 59.4998L38.7812 55.8126H35.8125V58.1876H37.5938L41.9531 64.0004L45.1914 57.5214L46.8836 61.7501H50.0625V59.3751H48.4914L45.4336 51.73Z" fill="#FECD1A"/>
<path d="M47.6875 47.5H35.8125V49.875H47.6875V47.5Z" fill="#FECD1A"/>
<path d="M47.6875 42.75H35.8125V45.125H47.6875V42.75Z" fill="#FECD1A"/>
<path d="M66.6875 38H35.8125V40.375H66.6875V38Z" fill="#FECD1A"/>
<path d="M31.3273 35.4624L28.9523 29.5249L25.6772 34.4376H23.9375V36.8126H26.9478L28.4227 34.6003L30.7977 40.5378L34.0728 35.6251H66.6875V33.2501H32.8022L31.3273 35.4624Z" fill="#FECD1A"/>
</svg>
