<svg width="85" height="83" viewBox="0 0 85 83" fill="none" xmlns="http://www.w3.org/2000/svg">
<path d="M21.4502 25.5001C22.1837 25.5001 22.7783 24.9069 22.7783 24.1751C22.7783 23.4433 22.1837 22.8501 21.4502 22.8501C20.7167 22.8501 20.122 23.4433 20.122 24.1751C20.122 24.9069 20.7167 25.5001 21.4502 25.5001Z" fill="#FECD1A"/>
<path d="M75.299 71.8749C74.1608 71.8749 73.0213 71.6073 72.0052 71.0985C70.1326 70.1644 68.7434 68.475 68.1935 66.461L66.0539 58.6355C65.4682 56.4957 64.4774 54.5241 63.0351 52.6823C61.4467 50.6524 59.3588 49.0611 56.9948 48.0117C56.7982 46.9504 56.9749 45.8466 57.5499 44.9099C58.2193 43.8181 59.331 43.0695 60.5993 42.8601L62.8226 42.4891L62.6035 41.1826C61.958 37.3163 64.3194 33.5877 68.0979 32.5105L71.041 31.6718L70.4938 30.3084C70.033 29.1596 70.11 27.8797 70.7037 26.7971C71.2987 25.7106 72.3426 24.9541 73.5671 24.7208C74.4038 24.5605 75.295 24.3684 76.2234 24.1365C81.9622 22.7042 83.5652 19.7958 83.7299 19.4685L84.5441 17.8428L78.3457 16.8914C70.782 15.7307 61.2102 8.39023 56.6787 2.25548C55.7875 1.04575 54.3478 0.324951 52.8298 0.324951C50.1735 0.324951 48.0127 2.48073 48.0127 5.13073V24.0928C48.0127 29.5862 45.4095 34.6093 41.0254 37.8211C40.0359 36.0761 39.3161 34.1601 38.9283 32.125H44.6618L43.934 30.3071C42.3482 26.3533 42.3482 21.9967 43.934 18.0415L44.6618 16.225H42.7002C39.0385 16.225 36.0595 13.253 36.0595 9.59995V6.31793L34.2374 7.04403C30.6992 8.4578 26.6697 7.63365 23.9723 4.94258L20.122 1.1014V11.7014L13.662 5.2566L17.3542 19.7614C16.8575 20.5047 16.4763 21.3395 16.2479 22.2471L15.4205 25.5476C15.1256 26.7256 14.427 27.775 13.4549 28.5024L12.6845 29.0774C10.6884 30.5721 9.49704 32.9491 9.49704 35.4375C9.49704 38.7248 12.1785 41.3999 15.4736 41.3999H15.8986C17.1298 41.3999 18.3609 41.1098 19.462 40.5612L23.4516 38.5711C24.5049 38.045 25.3363 37.2355 25.9113 36.2709C26.2872 38.3008 26.262 40.5891 25.7838 42.4931L24.5633 47.3651C24.2605 48.5735 24.1064 49.819 24.1064 51.0645C24.1064 52.0185 24.206 52.9632 24.3827 53.8934C23.4942 53.5409 22.5074 53.3249 21.4502 53.3249C19.3783 53.3249 17.5468 54.1027 16.3276 55.2926L13.0059 49.493L4.18454 47.7334V56.4546L10.3577 63.8454C10.3417 63.86 10.3258 63.8746 10.3099 63.8892C9.71618 64.4814 9.16634 65.1201 8.64173 65.776L6.64423 65.1121L1.01431 68.8566L4.35188 73.8505L0.894775 82.4749H57.3095C59.3642 82.4749 61.0402 80.9101 61.2514 78.9147C62.8531 79.3175 65.3766 79.8249 67.9345 79.8249H73.9483C78.1186 79.8249 81.8666 77.5141 83.7326 73.7922L84.6928 71.8749H75.299ZM55.2841 43.5266C54.6201 44.6104 54.2681 45.836 54.2429 47.0749C54.0981 47.0405 53.9574 46.9941 53.8126 46.9636L53.3756 46.8709C50.9 46.3409 48.6209 45.3352 46.6314 43.9585C49.5108 41.9419 51.8071 39.4085 53.4035 36.5571C54.7609 38.7698 56.3759 40.2154 57.7691 41.1455C56.7703 41.7272 55.9004 42.5209 55.2841 43.5266ZM59.8609 39.3369C58.3694 38.4796 56.2577 36.7611 54.806 33.5149C55.575 31.3829 55.9814 29.1304 55.9814 26.8249V24.7911C58.809 28.4308 62.0616 30.27 64.6474 31.1895C61.8451 32.969 60.0442 36.0019 59.8609 39.3369ZM68.3755 25.5238C67.7406 26.6805 67.4896 27.9724 67.5826 29.255C64.8905 28.7091 59.5514 26.76 55.9827 19.8594V14.1208C58.7506 16.6238 63.8917 20.5418 70.956 22.8976C69.8802 23.5111 68.9851 24.4121 68.3755 25.5238ZM50.6689 24.0928V5.13073C50.6689 3.9422 51.6384 2.97495 52.8298 2.97495C53.5177 2.97495 54.142 3.285 54.5431 3.82693C59.3867 10.3844 69.7116 18.2456 77.9446 19.5096L79.7695 19.7892C78.9221 20.3695 77.6551 21.0016 75.8661 21.4799C63.4003 18.8763 55.737 10.1498 55.6613 10.0611L53.3252 7.3554V26.8249C53.3252 35.2572 47.662 40.1385 44.4785 42.2175C43.7667 41.5497 43.1079 40.8289 42.5089 40.0577C47.6421 36.353 50.6689 30.4846 50.6689 24.0928ZM35.5655 29.4749C35.8749 28.664 36.0595 27.7988 36.0595 26.8978C36.0595 25.7795 35.7939 24.6599 35.2932 23.6582L35.1538 23.3786L40.4888 20.3377C39.8646 23.364 39.9775 26.4884 40.8421 29.4749H35.5655ZM39.0505 18.1038L33.9398 21.0175C33.0102 19.3387 31.6223 18.0309 29.9661 17.2094L33.7287 11.9545C34.4631 14.729 36.4474 16.9881 39.0505 18.1038ZM22.7783 7.44815C25.2566 9.5708 28.4507 10.5685 31.6316 10.3247L27.3152 16.3535C26.8264 16.2753 26.3297 16.225 25.8224 16.225H24.6563L22.7783 14.3514V7.44815ZM21.3452 16.6688C20.6998 16.8941 20.1048 17.2213 19.543 17.5977L18.6133 13.9433L21.3452 16.6688ZM24.8037 27.2953C23.4224 28.3288 22.9815 30.1957 23.7531 31.7341C23.9842 32.1952 24.1064 32.7106 24.1064 33.226C24.1064 34.494 23.3999 35.6335 22.263 36.2006L18.2733 38.1908C17.5402 38.5565 16.7194 38.75 15.8986 38.75H15.4736C13.6434 38.75 12.1533 37.2633 12.1533 35.4375C12.1533 33.7785 12.9475 32.1938 14.2783 31.1974L15.0486 30.6211C16.5082 29.5293 17.5548 27.9552 17.9984 26.1903L18.8258 22.8897C19.4181 20.5259 21.5378 18.875 23.9789 18.875H25.8224C28.3538 18.875 30.6302 20.2781 31.7617 22.5373L32.9172 24.8414C33.2359 25.4774 33.4033 26.1889 33.4033 26.8978C33.4033 28.7383 32.3076 30.3958 30.6169 31.1179L26.7441 32.7583C26.6843 31.9925 26.4745 31.2372 26.1305 30.5495C25.9339 30.1573 26.0468 29.6803 26.3988 29.4166L30.2158 26.5599L28.622 24.44L24.8037 27.2953ZM41.372 61.2749V61.0908C42.4584 61.8805 43.6365 62.584 44.8902 63.1829C44.7707 63.4241 44.6618 63.6705 44.5662 63.9236H40.9643C41.222 63.0703 41.372 62.1812 41.372 61.2749ZM55.9814 74.5249H51.3077L47.9024 70.2783C47.1175 69.3005 46.6845 68.0709 46.6845 66.8174C46.6845 63.7606 49.1761 61.2749 52.2388 61.2749H52.7753C53.632 61.2749 54.4368 61.6075 55.0424 62.2117C55.6481 62.8159 55.9814 63.6202 55.9814 64.4735V74.5249ZM40.5459 74.99C39.9563 73.8439 39.2006 72.7905 38.2974 71.8749H45.7881C45.8027 71.8935 45.8133 71.916 45.8279 71.9346L47.9051 74.5249H42.7002C41.9325 74.5249 41.206 74.6959 40.5459 74.99ZM39.6853 66.575H44.0416C44.0376 66.6558 44.0283 66.7353 44.0283 66.8174C44.0283 67.6389 44.1731 68.4472 44.4134 69.2249H36.8086C37.0955 69.0554 37.3863 68.8937 37.6533 68.6949C38.4502 68.0987 39.1262 67.3752 39.6853 66.575ZM38.7158 61.2749C38.7158 63.3486 37.7224 65.3308 36.0595 66.575C34.9187 67.4296 33.5029 67.8999 32.0752 67.8999H25.4345C23.9696 67.8999 22.7783 66.7114 22.7783 65.2499C22.7783 63.7885 23.9696 62.5999 25.4345 62.5999H32.0752V55.1985C32.0752 54.3439 32.4085 53.5409 33.0155 52.9367C33.6198 52.3325 34.4246 51.9999 35.2813 51.9999H35.5097C36.3663 51.9999 37.1712 52.3325 37.7768 52.9367C38.3824 53.5409 38.7158 54.3452 38.7158 55.1985V61.2749ZM15.9504 61.5903C16.8376 62.6344 18.1883 63.395 19.7542 63.7275C19.3106 64.2085 18.4938 64.5874 17.4658 64.5874C15.8999 64.5874 14.8095 63.7143 14.8095 62.9312C14.8095 62.4131 15.2664 61.9043 15.9504 61.5903ZM29.0484 59.9499L27.7202 55.9749H29.4189V59.9499H29.0484ZM29.7509 53.3249H26.9752C26.8384 52.5803 26.7627 51.8264 26.7627 51.0645C26.7627 50.9346 26.7826 50.8048 26.7866 50.6749H31.609C31.4509 50.8035 31.2823 50.9174 31.1362 51.0632C30.4894 51.7084 30.0365 52.4862 29.7509 53.3249ZM27.1372 48.0249C27.1385 48.0183 27.1385 48.013 27.1412 48.0064L27.9527 44.7694C29.4548 45.6121 30.7816 46.7132 31.872 48.0249H27.1372ZM21.4502 55.9749C23.6097 55.9749 25.4345 57.1886 25.4345 58.6249C25.4345 59.2119 25.1357 59.677 24.8143 60.0122C23.7492 60.1381 22.7863 60.5714 22.0093 61.2325C21.8247 61.2498 21.6414 61.2749 21.4502 61.2749C19.2906 61.2749 17.4658 60.0612 17.4658 58.6249C17.4658 57.1886 19.2906 55.9749 21.4502 55.9749ZM6.84079 50.9664L11.2993 51.8568L14.8759 58.1002C14.8547 58.2751 14.8095 58.4447 14.8095 58.6249C14.8095 58.8144 14.8547 58.9933 14.8799 59.1775C14.4842 59.355 14.1189 59.5657 13.7962 59.8161L12.059 55.4834L9.59267 56.4665L11.383 60.9318L6.84079 55.4953V50.9664ZM7.03735 68.0378L13.9569 70.3379L15.6237 72.8329L13.2849 74.3885L6.36532 72.0883L4.69853 69.5933L7.03735 68.0378ZM4.81806 79.8249L6.74915 75.0072L13.678 77.3114L19.3079 73.567L15.6622 68.1119L11.3431 66.6757C11.6181 66.3643 11.8956 66.0555 12.1878 65.764C12.4136 65.5388 12.6527 65.3268 12.8891 65.1121C13.8002 66.3868 15.4802 67.2374 17.4658 67.2374C18.523 67.2374 19.4912 66.9897 20.3106 66.575C20.9043 68.8553 22.9669 70.5499 25.4345 70.5499H31.7073L34.4313 72.1797C36.2043 73.241 37.5749 74.8496 38.409 76.7271C37.7728 77.6003 37.3877 78.6656 37.3877 79.8249H4.81806ZM57.3095 79.8249H40.0439C40.0439 78.3635 41.2352 77.1749 42.7002 77.1749H57.3095C58.0413 77.1749 58.6377 77.7685 58.6377 78.4999C58.6377 79.2313 58.0413 79.8249 57.3095 79.8249ZM73.9483 77.1749H67.9345C64.2238 77.1749 60.4227 75.9308 60.3842 75.9175L60.3642 75.9785C59.91 75.4326 59.3203 75.0112 58.6377 74.7687V64.4735C58.6377 62.9113 58.0281 61.4432 56.9217 60.3382C55.8154 59.2331 54.3425 58.6249 52.7753 58.6249H52.2388C49.9929 58.6249 47.9569 59.5312 46.472 60.994C44.5516 60.1288 42.8131 59.0039 41.372 57.6829V55.1985C41.372 53.6363 40.7624 52.1682 39.6561 51.0632C38.6481 50.0575 37.3319 49.4877 35.9227 49.3897C34.3024 46.2362 31.7431 43.6975 28.5769 42.1049C28.9833 39.7954 28.9049 37.2156 28.3591 34.9525L31.6595 33.5546C32.4723 33.2075 33.1855 32.7106 33.8017 32.1236H36.2468C37.6759 40.7215 44.1983 47.6155 52.8218 49.4599L53.2588 49.5527C56.3706 50.2178 59.0281 51.8621 61.019 54.4075C62.1692 55.8742 63.0019 57.5305 63.4933 59.3298L65.6329 67.1553C66.382 69.8954 68.2719 72.1969 70.8192 73.4676C72.2005 74.1606 73.7504 74.5249 75.299 74.5249H80.0324C78.4918 76.1971 76.3097 77.1749 73.9483 77.1749Z" fill="#FECD1A"/>
<path d="M26.7627 74.525C25.141 74.525 24.1064 73.7406 24.1064 73.2H21.4502C21.4502 75.4299 23.7837 77.1749 26.7627 77.1749C29.7417 77.1749 32.0752 75.4299 32.0752 73.2H29.4189C29.4189 73.7406 28.3843 74.525 26.7627 74.525Z" fill="#FECD1A"/>
<path d="M36.0595 74.5249H33.4033V77.1749H36.0595V74.5249Z" fill="#FECD1A"/>
</svg>
