<svg width="52" height="52" viewBox="0 0 52 52" fill="none" xmlns="http://www.w3.org/2000/svg">
<circle cx="26" cy="26" r="26" fill="#FD3A69"/>
<g clip-path="url(#clip0)">
<path d="M17.0638 23.587L9.98523 33.9535C9.77868 34.286 9.99194 34.7183 10.3829 34.7608L24.3496 36.2285L17.0638 23.587ZM10.4017 30.2615L15.4509 22.1253L10.3112 19.0677C10.1321 18.9613 9.90475 19.089 9.90475 19.2958V30.1225C9.90475 30.3905 10.2595 30.4903 10.4017 30.2615ZM11.1287 37.4547L24.1658 43.2841C24.5212 43.447 24.927 43.189 24.927 42.8013V38.4343L11.2762 36.9513C10.9778 36.9181 10.8584 37.3231 11.1287 37.4547ZM16.5756 20.3126L21.9359 10.8071C22.227 10.3377 21.6952 9.79303 21.213 10.0663L11.0992 16.6238C10.9335 16.7316 10.9389 16.9736 11.1079 17.0747L16.5756 20.3126ZM26 20.9895H33.324L26.9141 9.79237C26.7042 9.45455 26.3521 9.28564 26 9.28564C25.6479 9.28564 25.2958 9.45455 25.0859 9.79237L18.676 20.9895H26ZM41.6888 19.0677L36.5491 22.126L41.5983 30.2622C41.7398 30.4909 42.0952 30.3912 42.0952 30.1225V19.2958C42.0952 19.089 41.8679 18.9613 41.6888 19.0677ZM35.4244 20.3126L40.8921 17.074C41.0618 16.973 41.0665 16.7309 40.9008 16.6232L30.787 10.0663C30.3048 9.79303 29.773 10.3377 30.064 10.8071L35.4244 20.3126ZM40.7238 36.9513L27.073 38.4336V42.8006C27.073 43.189 27.4787 43.4463 27.8342 43.2834L40.8713 37.4541C41.1416 37.3231 41.0222 36.9181 40.7238 36.9513ZM34.9362 23.587L27.6511 36.2285L41.6177 34.7608C42.0087 34.7176 42.222 34.286 42.0154 33.9535L34.9362 23.587ZM26 23.1175H19.2648L26 34.8047L32.7352 23.1175H26Z" fill="#FFB9B9"/>
</g>
<defs>
<clipPath id="clip0">
<rect width="32.1905" height="34.0476" fill="white" transform="translate(9.90475 9.28564)"/>
</clipPath>
</defs>
</svg>
