<svg width="52" height="53" viewBox="0 0 52 53" fill="none" xmlns="http://www.w3.org/2000/svg">
<circle cx="26" cy="26.9524" r="26" fill="#FD3A69"/>
<path d="M42.936 21.4761C42.7819 19.2972 41.8091 17.2572 40.213 15.7659C38.6169 14.2747 36.5157 13.4425 34.3314 13.4366H17.0496C14.8347 13.4266 12.7015 14.2727 11.0955 15.7981C9.48959 17.3236 8.53504 19.4104 8.43122 21.623C8.41394 21.7595 8.40875 21.9012 8.40875 22.0602V35.0388C8.40875 36.6374 9.05336 38.1979 10.1749 39.3178C11.3135 40.4489 12.8525 41.0848 14.4574 41.0874C16.9269 41.0874 18.4736 39.2538 19.9685 37.4807C20.5181 36.8292 21.0849 36.1552 21.6967 35.5745C22.1063 35.184 23.6011 34.4564 24.3563 34.2767C24.7918 34.1747 26.5909 34.1764 27.0195 34.2749C27.7781 34.4547 29.273 35.184 29.6826 35.5728C30.2944 36.1552 30.8612 36.8292 31.4108 37.4807C32.9074 39.2538 34.4541 41.0874 36.9236 41.0874C38.5222 41.0874 40.0827 40.4428 41.2026 39.3212C42.3337 38.1827 42.9697 36.6437 42.9722 35.0388V22.0775C42.9722 21.9133 42.9653 21.7664 42.948 21.6282L42.936 21.4761ZM39.5159 35.0388C39.5159 35.7249 39.2411 36.3937 38.759 36.8758C38.2705 37.3595 37.611 37.6309 36.9236 37.6311C36.0595 37.6311 35.1298 36.5285 34.0531 35.2514C33.4725 34.5653 32.814 33.7841 32.0675 33.0704C31.0703 32.1216 28.9205 31.1729 27.8144 30.9119C27.0955 30.7443 26.1744 30.7184 25.6905 30.7184C25.2066 30.7184 24.2855 30.7443 23.5648 30.9136C22.4623 31.1729 20.3124 32.1216 19.3153 33.0721C18.567 33.7841 17.9103 34.5635 17.3296 35.2514C16.2512 36.5285 15.3215 37.6311 14.4574 37.6311C13.7713 37.6311 13.1025 37.3563 12.6203 36.8741C12.1367 36.3857 11.8653 35.7262 11.8651 35.0388L11.8495 22.1155C11.8668 22.0274 11.8772 21.9375 11.8807 21.8476C11.93 20.5122 12.4971 19.2483 13.4618 18.3236C14.4266 17.3988 15.7133 16.8858 17.0496 16.893H34.3314C37.0394 16.893 39.3033 19.01 39.4813 21.5936C39.4813 21.6973 39.49 21.801 39.4986 21.801C39.4986 21.9116 39.4934 21.9686 39.5159 22.0775V35.0388Z" fill="#FFB9B9"/>
<path d="M32.6032 28.9903C33.5576 28.9903 34.3313 28.2166 34.3313 27.2621C34.3313 26.3077 33.5576 25.5339 32.6032 25.5339C31.6487 25.5339 30.875 26.3077 30.875 27.2621C30.875 28.2166 31.6487 28.9903 32.6032 28.9903Z" fill="#FFB9B9"/>
<path d="M36.0595 25.5337C37.014 25.5337 37.7877 24.76 37.7877 23.8056C37.7877 22.8511 37.014 22.0774 36.0595 22.0774C35.1051 22.0774 34.3314 22.8511 34.3314 23.8056C34.3314 24.76 35.1051 25.5337 36.0595 25.5337Z" fill="#FFB9B9"/>
<path d="M32.6032 22.0774C33.5576 22.0774 34.3313 21.3037 34.3313 20.3493C34.3313 19.3948 33.5576 18.6211 32.6032 18.6211C31.6487 18.6211 30.875 19.3948 30.875 20.3493C30.875 21.3037 31.6487 22.0774 32.6032 22.0774Z" fill="#FFB9B9"/>
<path d="M29.1468 25.5337C30.1013 25.5337 30.875 24.76 30.875 23.8056C30.875 22.8511 30.1013 22.0774 29.1468 22.0774C28.1924 22.0774 27.4186 22.8511 27.4186 23.8056C27.4186 24.76 28.1924 25.5337 29.1468 25.5337Z" fill="#FFB9B9"/>
<path d="M18.7778 27.2621C20.6867 27.2621 22.2341 25.7146 22.2341 23.8057C22.2341 21.8968 20.6867 20.3494 18.7778 20.3494C16.8689 20.3494 15.3214 21.8968 15.3214 23.8057C15.3214 25.7146 16.8689 27.2621 18.7778 27.2621Z" fill="#FFB9B9"/>
</svg>
