<svg width="394" height="48" viewBox="0 0 394 48" fill="none" xmlns="http://www.w3.org/2000/svg">
<path d="M2.925 44.625C2.75833 44.4583 2.6125 44.2708 2.4875 44.0625C2.3625 43.8125 2.25833 43.5 2.175 43.125C1.59167 42.4167 1.13333 41.6042 0.8 40.6875C0.466667 39.7708 0.2375 38.8333 0.1125 37.875C-0.0125 36.875 -0.0333333 35.875 0.05 34.875C0.133333 33.875 0.279167 32.9375 0.4875 32.0625C0.6125 31.6458 0.716667 31.2083 0.8 30.75C1.00833 29.9583 1.21667 29.1875 1.425 28.4375C1.63333 27.6458 1.94583 27 2.3625 26.5C2.19583 26.0417 2.21667 25.5417 2.425 25C2.63333 24.4583 2.84167 23.9583 3.05 23.5C3.13333 23.375 3.19583 23.2708 3.2375 23.1875C3.27917 23.0625 3.32083 22.9583 3.3625 22.875C3.8625 21.4167 4.34167 20.0208 4.8 18.6875C5.3 17.3125 5.77917 16 6.2375 14.75C7.07083 12.4583 7.8625 10.2083 8.6125 8C9.40417 5.79167 10.1125 3.4375 10.7375 0.9375C11.0708 0.6875 11.3625 0.520833 11.6125 0.4375C11.6958 0.395833 11.8 0.354167 11.925 0.3125C12.05 0.270833 12.1958 0.25 12.3625 0.25C13.2375 0.708333 14.2583 1.14583 15.425 1.5625C16.6333 1.9375 17.6542 2.125 18.4875 2.125L19.55 3.0625C20.0917 3.6875 20.55 4.35417 20.925 5.0625C21.3417 5.72917 21.4667 6.60417 21.3 7.6875C21.05 8.0625 20.8417 8.29167 20.675 8.375C20.425 9.33333 20.1542 10.1875 19.8625 10.9375C19.5708 11.6458 19.2792 12.3333 18.9875 13C18.6542 13.75 18.3417 14.5 18.05 15.25C17.7583 16 17.5083 16.9167 17.3 18C17.05 18.2917 16.8833 18.5417 16.8 18.75C16.7583 18.9583 16.6958 19.1667 16.6125 19.375C16.5292 19.625 16.425 19.8958 16.3 20.1875C16.175 20.4375 15.9875 20.6667 15.7375 20.875C15.5708 22.1667 15.3208 23.2292 14.9875 24.0625C14.6542 24.8542 14.3208 25.6458 13.9875 26.4375C13.4042 27.8958 12.8625 29.3542 12.3625 30.8125C11.8625 32.2292 11.5708 33.8542 11.4875 35.6875C11.9875 35.5625 12.4458 35.5 12.8625 35.5C13.4042 35.5 13.925 35.5833 14.425 35.75C15.925 35 17.55 34.5417 19.3 34.375C21.0917 34.2083 22.8625 34.1042 24.6125 34.0625C26.0708 34.0625 27.425 34 28.675 33.875C29.0917 34.1667 29.3625 34.3333 29.4875 34.375C29.6125 34.375 29.8208 34.375 30.1125 34.375C30.2375 34.375 30.3625 34.375 30.4875 34.375C30.6125 34.375 30.7792 34.3958 30.9875 34.4375C31.5708 35.0208 32.1333 35.4375 32.675 35.6875C33.2167 35.8958 33.8 36.1042 34.425 36.3125C34.9667 36.5208 35.4875 36.75 35.9875 37C36.5292 37.2083 37.05 37.5 37.55 37.875L38.1125 41.0625C38.4458 41.5208 38.5917 41.8333 38.55 42C38.55 42.3333 38.4667 42.625 38.3 42.875L38.425 43.6875C37.6333 43.8542 37.1125 44.0417 36.8625 44.25C36.6125 44.4167 36.3417 44.6458 36.05 44.9375C35.5917 44.9792 35.1542 45 34.7375 45C33.9042 45 33.05 45.125 32.175 45.375C30.925 44.9167 29.55 44.6875 28.05 44.6875C27.4667 44.6875 26.8625 44.7083 26.2375 44.75C25.6542 44.7917 25.0708 44.8542 24.4875 44.9375C23.8625 45.0208 23.2375 45.1042 22.6125 45.1875C21.9875 45.2292 21.3625 45.25 20.7375 45.25C20.2375 45.3333 19.8833 45.3958 19.675 45.4375C19.4667 45.4792 19.2583 45.5417 19.05 45.625C17.6333 46.0833 16.0917 46.5417 14.425 47C12.8 47.4583 11.1542 47.6875 9.4875 47.6875C7.02917 47.6875 5.05 47.0625 3.55 45.8125C3.38333 45.4375 3.25833 45.1875 3.175 45.0625C3.09167 44.9375 3.00833 44.7917 2.925 44.625Z" fill="#FD3A69"/>
<path d="M42.6125 34.25C41.3625 33.5417 40.4042 32.5417 39.7375 31.25C39.0708 29.9583 38.6958 28.7292 38.6125 27.5625C38.7375 26.5625 39.0083 25.7917 39.425 25.25C39.8 24.6667 40.2583 24.2083 40.8 23.875C41.3417 23.5 41.9042 23.2292 42.4875 23.0625C43.0708 22.8542 43.6333 22.6875 44.175 22.5625L45.1125 22.875C45.3208 23.0833 45.5292 23.2708 45.7375 23.4375C45.9875 23.6042 46.2167 23.7708 46.425 23.9375C46.8417 23.7708 47.0917 23.5208 47.175 23.1875C47.3 22.8542 47.425 22.5208 47.55 22.1875C47.675 21.7292 47.8208 21.2708 47.9875 20.8125C48.1542 20.3542 48.3625 19.8958 48.6125 19.4375C48.5708 19.0625 48.5917 18.7292 48.675 18.4375C48.7583 18.1458 48.8417 17.8958 48.925 17.6875C48.675 17.4792 48.4875 17.375 48.3625 17.375C48.2792 17.3333 48.1125 17.2708 47.8625 17.1875C47.7375 17.1875 47.6125 17.1875 47.4875 17.1875C47.3625 17.1458 47.2167 17.1042 47.05 17.0625C46.425 16.6042 46.0083 16.2292 45.8 15.9375C45.6333 15.6042 45.4458 15.2708 45.2375 14.9375C45.0292 14.6042 44.8417 14.3125 44.675 14.0625C44.5083 13.8125 44.3208 13.5833 44.1125 13.375L43.3625 12.875L43.7375 12.125C43.8208 12.0417 43.8625 11.9375 43.8625 11.8125C43.8625 11.6458 43.7792 11.4167 43.6125 11.125C43.4875 10.5833 43.4667 10.1875 43.55 9.9375L43.675 9.1875C44.0917 8.64583 44.3208 8.33333 44.3625 8.25L44.9875 7.625C45.9458 7.375 46.925 7.10417 47.925 6.8125C48.925 6.47917 49.9042 6.14583 50.8625 5.8125C51.8208 5.47917 52.8 5.14583 53.8 4.8125C54.8 4.47917 55.8 4.1875 56.8 3.9375C57.1333 3.64583 57.4875 3.47917 57.8625 3.4375C58.2792 3.35417 58.6542 3.29167 58.9875 3.25C59.2792 3.25 59.55 3.22917 59.8 3.1875C60.05 3.14583 60.2375 3.04167 60.3625 2.875C61.0708 2.625 61.7583 2.41667 62.425 2.25C63.675 1.91667 65.3208 1.52083 67.3625 1.0625C69.4042 0.604167 71.6958 0.270833 74.2375 0.0625L75.55 0C75.8 0.0416667 76.05 0.0625 76.3 0.0625C76.55 0.0208333 76.8 0 77.05 0C79.2167 0 80.6542 0.666667 81.3625 2C81.7792 2.20833 82.1542 2.47917 82.4875 2.8125C82.8208 3.10417 83.1333 3.39583 83.425 3.6875C83.6333 3.89583 83.8208 4.08333 83.9875 4.25C84.1542 4.375 84.3 4.47917 84.425 4.5625L84.925 5.0625C85.3833 6.0625 85.4667 7.04167 85.175 8C84.925 8.5 84.6542 8.79167 84.3625 8.875C84.0708 8.95833 83.7792 9.04167 83.4875 9.125L82.675 9.5625C82.1333 9.52083 81.7167 9.5 81.425 9.5C81.175 9.5 80.8833 9.5 80.55 9.5C79.3 9.5 77.8417 9.58333 76.175 9.75C74.55 9.875 72.8833 10.0833 71.175 10.375C69.4667 10.625 67.8 10.9583 66.175 11.375C64.55 11.75 63.1333 12.1667 61.925 12.625C61.5917 12.875 61.1542 13.1042 60.6125 13.3125C60.4875 13.3542 60.3 13.4583 60.05 13.625C60.0917 13.9583 60.0917 14.2917 60.05 14.625C60.0083 14.9167 59.9458 15.2083 59.8625 15.5C59.8208 15.7083 59.7792 15.9375 59.7375 16.1875C59.7375 16.3958 59.7167 16.625 59.675 16.875C58.8 17.9167 58.3833 19.1458 58.425 20.5625L58.1125 21.1875C57.9458 21.3542 57.8 21.6042 57.675 21.9375C57.5917 22.2292 57.5917 22.5417 57.675 22.875L57.925 23.625C58.7583 23.5417 59.5708 23.4583 60.3625 23.375C61.1958 23.25 62.0708 23.125 62.9875 23C64.1542 22.7917 65.3208 22.625 66.4875 22.5C67.6958 22.3333 68.9458 22.25 70.2375 22.25H72.675L72.1125 22.8125L72.8 22.875L72.425 23.875C72.7167 24 72.925 24.1042 73.05 24.1875C73.2167 24.2292 73.3625 24.2917 73.4875 24.375L73.925 25C74.1333 25.125 74.3208 25.3333 74.4875 25.625C74.6542 25.875 74.7583 26.2292 74.8 26.6875L74.6125 27.3125L71.675 31.0625L71.3 31.5625L70.675 31.375C69.8833 31.3333 69.1333 31.4167 68.425 31.625C68.0917 31.7083 67.7375 31.8125 67.3625 31.9375C66.9875 32.0208 66.6125 32.0625 66.2375 32.0625C65.2375 32.2292 64.4042 32.375 63.7375 32.5C63.0708 32.5833 62.4042 32.6667 61.7375 32.75C60.8208 32.9167 59.925 33.0833 59.05 33.25C58.2167 33.375 57.425 33.5833 56.675 33.875C56.2167 33.9167 55.9458 33.9375 55.8625 33.9375C55.7792 33.8958 55.6958 33.875 55.6125 33.875C55.1958 33.875 54.7792 33.9375 54.3625 34.0625C53.9458 34.1875 53.55 34.3125 53.175 34.4375C52.925 34.6458 52.7583 34.875 52.675 35.125C52.5917 35.3333 52.5083 35.5625 52.425 35.8125C52.3417 36.1042 52.2167 36.3958 52.05 36.6875C51.925 36.9375 51.7583 37.2083 51.55 37.5L51.6125 38.625C51.2375 38.7083 51.05 38.7708 51.05 38.8125C51.05 38.8125 51.0292 38.8125 50.9875 38.8125C50.9875 39.1458 50.925 39.4583 50.8 39.75C50.7167 40.0417 50.6333 40.3125 50.55 40.5625C50.4667 40.7292 50.4042 40.875 50.3625 41C50.3208 41.125 50.3 41.25 50.3 41.375C50.7167 42.125 50.8208 42.9792 50.6125 43.9375C50.4458 44.7292 50.1333 45.4375 49.675 46.0625C49.2167 46.6458 48.675 47.1042 48.05 47.4375C47.3833 47.5208 46.8833 47.5 46.55 47.375C46.2583 47.25 45.9458 47.125 45.6125 47C45.4042 46.9167 45.1958 46.8542 44.9875 46.8125C44.7792 46.7292 44.5708 46.6667 44.3625 46.625L43.6125 46C43.4875 45.75 43.3417 45.5208 43.175 45.3125C43.0083 45.0625 42.8417 44.8125 42.675 44.5625C42.4667 44.2708 42.2583 43.9792 42.05 43.6875C41.8417 43.3958 41.6542 43.0625 41.4875 42.6875C41.1958 41.2292 41.1333 40.0208 41.3 39.0625C41.5083 38.0625 41.7792 37.0833 42.1125 36.125C42.1958 35.7917 42.2792 35.4792 42.3625 35.1875C42.4458 34.8958 42.5292 34.5833 42.6125 34.25Z" fill="#FD3A69"/>
<path d="M116.44 47.768C114.947 47.768 113.603 47.384 112.408 46.616C111.256 45.8053 110.339 44.504 109.656 42.712L95 2.19999H101.72L114.712 40.216C114.925 40.7707 115.16 41.2187 115.416 41.56C115.672 41.9013 116.013 42.072 116.44 42.072C116.909 42.072 117.272 41.9013 117.528 41.56C117.784 41.2187 118.019 40.7707 118.232 40.216L131.48 2.19999H137.944L123.288 42.712C122.648 44.4613 121.731 45.7413 120.536 46.552C119.384 47.3627 118.019 47.768 116.44 47.768Z" fill="#E7E7E7"/>
<path d="M159.308 47C155.681 47 152.481 46.3387 149.708 45.016C146.977 43.6507 144.822 41.752 143.243 39.32C141.707 36.8453 140.939 33.9653 140.939 30.68C140.939 27.4373 141.601 24.536 142.924 21.976C144.246 19.3733 146.081 17.3253 148.428 15.832C150.774 14.3387 153.505 13.592 156.62 13.592C159.99 13.592 162.785 14.3173 165.004 15.768C167.265 17.2187 168.95 19.1813 170.06 21.656C171.169 24.088 171.724 26.8187 171.724 29.848C171.724 30.872 171.66 31.8107 171.532 32.664H147.212C147.425 34.6693 148.086 36.376 149.195 37.784C150.305 39.1493 151.713 40.1947 153.42 40.92C155.169 41.6027 157.089 41.944 159.18 41.944H167.692V47H159.308ZM147.147 28.504H165.771C165.771 27.096 165.494 25.624 164.939 24.088C164.385 22.552 163.446 21.2507 162.124 20.184C160.801 19.0747 158.966 18.52 156.62 18.52C154.657 18.52 152.971 19.032 151.563 20.056C150.198 21.0373 149.132 22.296 148.364 23.832C147.638 25.3253 147.233 26.8827 147.147 28.504Z" fill="#E7E7E7"/>
<path d="M179.039 47V23.64C179.039 20.7387 179.85 18.4773 181.471 16.856C183.135 15.192 185.418 14.36 188.32 14.36H195.04V19.416H189.408C187.957 19.416 186.847 19.8427 186.079 20.696C185.311 21.5067 184.927 22.616 184.927 24.024V47H179.039Z" fill="#E7E7E7"/>
<path d="M200.481 47V14.36H206.434V47H200.481ZM203.49 9.17599C202.38 9.17599 201.442 8.79199 200.674 8.02399C199.905 7.21332 199.521 6.27466 199.521 5.20799C199.521 4.14132 199.905 3.22399 200.674 2.45599C201.442 1.64532 202.38 1.23999 203.49 1.23999C204.556 1.23999 205.474 1.64532 206.242 2.45599C207.052 3.22399 207.458 4.14132 207.458 5.20799C207.458 6.27466 207.052 7.21332 206.242 8.02399C205.474 8.79199 204.556 9.17599 203.49 9.17599Z" fill="#E7E7E7"/>
<path d="M215.284 47V41.944H230.9C232.436 41.944 233.63 41.4747 234.484 40.536C235.38 39.5547 235.827 38.4453 235.827 37.208C235.827 36.056 235.422 35.0533 234.611 34.2C233.843 33.304 232.713 32.856 231.219 32.856H224.628C221.47 32.856 218.931 32.088 217.011 30.552C215.134 28.9733 214.196 26.6907 214.196 23.704C214.196 22.04 214.601 20.504 215.411 19.096C216.222 17.688 217.353 16.5573 218.803 15.704C220.254 14.808 221.918 14.36 223.796 14.36H238.835V19.416H224.372C223.092 19.416 222.046 19.8427 221.236 20.696C220.468 21.5067 220.084 22.4453 220.084 23.512C220.084 24.5787 220.468 25.5173 221.236 26.328C222.046 27.096 223.177 27.48 224.628 27.48H230.9C234.398 27.48 237.065 28.312 238.9 29.976C240.777 31.64 241.715 33.9867 241.715 37.016C241.715 38.7653 241.289 40.408 240.436 41.944C239.582 43.4373 238.388 44.6533 236.852 45.592C235.316 46.5307 233.566 47 231.604 47H215.284Z" fill="#E7E7E7"/>
<path d="M249.033 47V41.944H264.65C266.186 41.944 267.38 41.4747 268.234 40.536C269.13 39.5547 269.577 38.4453 269.577 37.208C269.577 36.056 269.172 35.0533 268.361 34.2C267.593 33.304 266.463 32.856 264.969 32.856H258.378C255.22 32.856 252.682 32.088 250.762 30.552C248.884 28.9733 247.945 26.6907 247.945 23.704C247.945 22.04 248.351 20.504 249.161 19.096C249.972 17.688 251.103 16.5573 252.553 15.704C254.004 14.808 255.668 14.36 257.546 14.36H272.585V19.416H258.122C256.842 19.416 255.796 19.8427 254.986 20.696C254.218 21.5067 253.833 22.4453 253.833 23.512C253.833 24.5787 254.218 25.5173 254.986 26.328C255.796 27.096 256.927 27.48 258.378 27.48H264.65C268.148 27.48 270.815 28.312 272.65 29.976C274.527 31.64 275.465 33.9867 275.465 37.016C275.465 38.7653 275.039 40.408 274.186 41.944C273.332 43.4373 272.138 44.6533 270.602 45.592C269.066 46.5307 267.316 47 265.354 47H249.033Z" fill="#E7E7E7"/>
<path d="M283.232 47V14.36H289.184V47H283.232ZM286.24 9.17599C285.13 9.17599 284.192 8.79199 283.424 8.02399C282.656 7.21332 282.271 6.27466 282.271 5.20799C282.271 4.14132 282.656 3.22399 283.424 2.45599C284.192 1.64532 285.13 1.23999 286.24 1.23999C287.306 1.23999 288.224 1.64532 288.992 2.45599C289.802 3.22399 290.208 4.14132 290.208 5.20799C290.208 6.27466 289.802 7.21332 288.992 8.02399C288.224 8.79199 287.306 9.17599 286.24 9.17599Z" fill="#E7E7E7"/>
<path d="M298.482 47V27.352C298.482 24.8347 299.058 22.552 300.21 20.504C301.362 18.4133 303.026 16.7493 305.202 15.512C307.378 14.232 310.002 13.592 313.074 13.592C315.292 13.592 317.489 14.0827 319.665 15.064C321.884 16.0027 323.591 17.688 324.786 20.12H324.85C326.087 17.688 327.815 16.0027 330.034 15.064C332.252 14.0827 334.492 13.592 336.753 13.592C339.783 13.592 342.386 14.232 344.562 15.512C346.738 16.7493 348.401 18.4133 349.553 20.504C350.705 22.552 351.281 24.8347 351.281 27.352V47H345.394V27.352C345.394 25.7307 345.01 24.2587 344.242 22.936C343.474 21.6133 342.428 20.568 341.105 19.8C339.826 19.032 338.354 18.648 336.689 18.648C335.068 18.648 333.575 19.0533 332.21 19.864C330.844 20.632 329.756 21.6773 328.945 23C328.177 24.3227 327.794 25.7733 327.794 27.352V47H321.906V27.352C321.906 25.7733 321.5 24.3227 320.689 23C319.921 21.6773 318.855 20.632 317.49 19.864C316.167 19.0533 314.674 18.648 313.01 18.648C311.388 18.648 309.916 19.032 308.594 19.8C307.314 20.568 306.289 21.6133 305.521 22.936C304.753 24.2587 304.37 25.7307 304.37 27.352V47H298.482Z" fill="#E7E7E7"/>
<path d="M375.966 47.768C372.638 47.768 369.673 47.0213 367.07 45.528C364.51 43.992 362.484 41.944 360.991 39.384C359.54 36.7813 358.815 33.88 358.815 30.68C358.815 27.48 359.54 24.6 360.991 22.04C362.484 19.4373 364.51 17.3893 367.07 15.896C369.673 14.36 372.638 13.592 375.966 13.592C379.294 13.592 382.238 14.36 384.798 15.896C387.401 17.3893 389.428 19.4373 390.879 22.04C392.372 24.6 393.118 27.48 393.118 30.68C393.118 33.88 392.372 36.7813 390.879 39.384C389.428 41.944 387.401 43.992 384.798 45.528C382.238 47.0213 379.294 47.768 375.966 47.768ZM375.966 42.712C378.228 42.712 380.19 42.1787 381.854 41.112C383.518 40.0453 384.82 38.616 385.759 36.824C386.697 34.9893 387.167 32.9413 387.167 30.68C387.167 28.4187 386.697 26.392 385.759 24.6C384.82 22.7653 383.518 21.3147 381.854 20.248C380.19 19.1813 378.228 18.648 375.966 18.648C373.748 18.648 371.785 19.1813 370.078 20.248C368.414 21.3147 367.113 22.7653 366.174 24.6C365.236 26.392 364.767 28.4187 364.767 30.68C364.767 32.9413 365.236 34.9893 366.174 36.824C367.113 38.616 368.414 40.0453 370.078 41.112C371.785 42.1787 373.748 42.712 375.966 42.712Z" fill="#E7E7E7"/>
</svg>
