<svg width="394" height="48" viewBox="0 0 394 48" fill="none" xmlns="http://www.w3.org/2000/svg">
<path d="M3.56245 44.6875C3.39578 44.5208 3.24995 44.3333 3.12495 44.125C2.99995 43.875 2.89578 43.5625 2.81245 43.1875C2.22912 42.4792 1.77078 41.6667 1.43745 40.75C1.10412 39.8333 0.874951 38.8958 0.749951 37.9375C0.624951 36.9375 0.604118 35.9375 0.687451 34.9375C0.770785 33.9375 0.916618 33 1.12495 32.125C1.24995 31.7083 1.35412 31.2708 1.43745 30.8125C1.64578 30.0208 1.85412 29.25 2.06245 28.5C2.27078 27.7083 2.58328 27.0625 2.99995 26.5625C2.83328 26.1042 2.85412 25.6042 3.06245 25.0625C3.27078 24.5208 3.47912 24.0208 3.68745 23.5625C3.77078 23.4375 3.83328 23.3333 3.87495 23.25C3.91662 23.125 3.95828 23.0208 3.99995 22.9375C4.49995 21.4792 4.97912 20.0833 5.43745 18.75C5.93745 17.375 6.41662 16.0625 6.87495 14.8125C7.70828 12.5208 8.49995 10.2708 9.24995 8.0625C10.0416 5.85417 10.75 3.5 11.375 1C11.7083 0.75 12 0.583333 12.25 0.5C12.3333 0.458333 12.4375 0.416667 12.5625 0.375C12.6875 0.333333 12.8333 0.3125 13 0.3125C13.875 0.770833 14.8958 1.20833 16.0625 1.625C17.2708 2 18.2916 2.1875 19.125 2.1875L20.1875 3.125C20.7291 3.75 21.1875 4.41667 21.5625 5.125C21.9791 5.79167 22.1041 6.66667 21.9375 7.75C21.6875 8.125 21.4791 8.35417 21.3125 8.4375C21.0625 9.39583 20.7916 10.25 20.5 11C20.2083 11.7083 19.9166 12.3958 19.625 13.0625C19.2916 13.8125 18.9791 14.5625 18.6875 15.3125C18.3958 16.0625 18.1458 16.9792 17.9375 18.0625C17.6875 18.3542 17.5208 18.6042 17.4375 18.8125C17.3958 19.0208 17.3333 19.2292 17.25 19.4375C17.1666 19.6875 17.0625 19.9583 16.9375 20.25C16.8125 20.5 16.625 20.7292 16.375 20.9375C16.2083 22.2292 15.9583 23.2917 15.625 24.125C15.2916 24.9167 14.9583 25.7083 14.625 26.5C14.0416 27.9583 13.5 29.4167 13 30.875C12.5 32.2917 12.2083 33.9167 12.125 35.75C12.625 35.625 13.0833 35.5625 13.5 35.5625C14.0416 35.5625 14.5625 35.6458 15.0625 35.8125C16.5625 35.0625 18.1875 34.6042 19.9375 34.4375C21.7291 34.2708 23.5 34.1667 25.25 34.125C26.7083 34.125 28.0625 34.0625 29.3125 33.9375C29.7291 34.2292 30 34.3958 30.125 34.4375C30.25 34.4375 30.4583 34.4375 30.75 34.4375C30.875 34.4375 31 34.4375 31.125 34.4375C31.25 34.4375 31.4166 34.4583 31.625 34.5C32.2083 35.0833 32.7708 35.5 33.3125 35.75C33.8541 35.9583 34.4375 36.1667 35.0625 36.375C35.6041 36.5833 36.125 36.8125 36.625 37.0625C37.1666 37.2708 37.6875 37.5625 38.1875 37.9375L38.75 41.125C39.0833 41.5833 39.2291 41.8958 39.1875 42.0625C39.1875 42.3958 39.1041 42.6875 38.9375 42.9375L39.0625 43.75C38.2708 43.9167 37.75 44.1042 37.5 44.3125C37.25 44.4792 36.9791 44.7083 36.6875 45C36.2291 45.0417 35.7916 45.0625 35.375 45.0625C34.5416 45.0625 33.6875 45.1875 32.8125 45.4375C31.5625 44.9792 30.1875 44.75 28.6875 44.75C28.1041 44.75 27.5 44.7708 26.875 44.8125C26.2916 44.8542 25.7083 44.9167 25.125 45C24.5 45.0833 23.875 45.1667 23.25 45.25C22.625 45.2917 22 45.3125 21.375 45.3125C20.875 45.3958 20.5208 45.4583 20.3125 45.5C20.1041 45.5417 19.8958 45.6042 19.6875 45.6875C18.2708 46.1458 16.7291 46.6042 15.0625 47.0625C13.4375 47.5208 11.7916 47.75 10.125 47.75C7.66662 47.75 5.68745 47.125 4.18745 45.875C4.02078 45.5 3.89578 45.25 3.81245 45.125C3.72912 45 3.64578 44.8542 3.56245 44.6875Z" fill="#FD3A69"/>
<path d="M43.25 34.3125C42 33.6042 41.0416 32.6042 40.375 31.3125C39.7083 30.0208 39.3333 28.7917 39.25 27.625C39.375 26.625 39.6458 25.8542 40.0625 25.3125C40.4375 24.7292 40.8958 24.2708 41.4375 23.9375C41.9791 23.5625 42.5416 23.2917 43.125 23.125C43.7083 22.9167 44.2708 22.75 44.8125 22.625L45.75 22.9375C45.9583 23.1458 46.1666 23.3333 46.375 23.5C46.625 23.6667 46.8541 23.8333 47.0625 24C47.4791 23.8333 47.7291 23.5833 47.8125 23.25C47.9375 22.9167 48.0625 22.5833 48.1875 22.25C48.3125 21.7917 48.4583 21.3333 48.625 20.875C48.7916 20.4167 49 19.9583 49.25 19.5C49.2083 19.125 49.2291 18.7917 49.3125 18.5C49.3958 18.2083 49.4791 17.9583 49.5625 17.75C49.3125 17.5417 49.125 17.4375 49 17.4375C48.9166 17.3958 48.75 17.3333 48.5 17.25C48.375 17.25 48.25 17.25 48.125 17.25C48 17.2083 47.8541 17.1667 47.6875 17.125C47.0625 16.6667 46.6458 16.2917 46.4375 16C46.2708 15.6667 46.0833 15.3333 45.875 15C45.6666 14.6667 45.4791 14.375 45.3125 14.125C45.1458 13.875 44.9583 13.6458 44.75 13.4375L44 12.9375L44.375 12.1875C44.4583 12.1042 44.5 12 44.5 11.875C44.5 11.7083 44.4166 11.4792 44.25 11.1875C44.125 10.6458 44.1041 10.25 44.1875 10L44.3125 9.25C44.7291 8.70833 44.9583 8.39583 45 8.3125L45.625 7.6875C46.5833 7.4375 47.5625 7.16667 48.5625 6.875C49.5625 6.54167 50.5416 6.20833 51.5 5.875C52.4583 5.54167 53.4375 5.20833 54.4375 4.875C55.4375 4.54167 56.4375 4.25 57.4375 4C57.7708 3.70833 58.125 3.54167 58.5 3.5C58.9166 3.41667 59.2916 3.35417 59.625 3.3125C59.9166 3.3125 60.1875 3.29167 60.4375 3.25C60.6875 3.20833 60.875 3.10417 61 2.9375C61.7083 2.6875 62.3958 2.47917 63.0625 2.3125C64.3125 1.97917 65.9583 1.58333 68 1.125C70.0416 0.666667 72.3333 0.333333 74.875 0.125L76.1875 0.0625C76.4375 0.104167 76.6875 0.125 76.9375 0.125C77.1875 0.0833333 77.4375 0.0625 77.6875 0.0625C79.8541 0.0625 81.2916 0.729167 82 2.0625C82.4166 2.27083 82.7916 2.54167 83.125 2.875C83.4583 3.16667 83.7708 3.45833 84.0625 3.75C84.2708 3.95833 84.4583 4.14583 84.625 4.3125C84.7916 4.4375 84.9375 4.54167 85.0625 4.625L85.5625 5.125C86.0208 6.125 86.1041 7.10417 85.8125 8.0625C85.5625 8.5625 85.2916 8.85417 85 8.9375C84.7083 9.02083 84.4166 9.10417 84.125 9.1875L83.3125 9.625C82.7708 9.58333 82.3541 9.5625 82.0625 9.5625C81.8125 9.5625 81.5208 9.5625 81.1875 9.5625C79.9375 9.5625 78.4791 9.64583 76.8125 9.8125C75.1875 9.9375 73.5208 10.1458 71.8125 10.4375C70.1041 10.6875 68.4375 11.0208 66.8125 11.4375C65.1875 11.8125 63.7708 12.2292 62.5625 12.6875C62.2291 12.9375 61.7916 13.1667 61.25 13.375C61.125 13.4167 60.9375 13.5208 60.6875 13.6875C60.7291 14.0208 60.7291 14.3542 60.6875 14.6875C60.6458 14.9792 60.5833 15.2708 60.5 15.5625C60.4583 15.7708 60.4166 16 60.375 16.25C60.375 16.4583 60.3541 16.6875 60.3125 16.9375C59.4375 17.9792 59.0208 19.2083 59.0625 20.625L58.75 21.25C58.5833 21.4167 58.4375 21.6667 58.3125 22C58.2291 22.2917 58.2291 22.6042 58.3125 22.9375L58.5625 23.6875C59.3958 23.6042 60.2083 23.5208 61 23.4375C61.8333 23.3125 62.7083 23.1875 63.625 23.0625C64.7916 22.8542 65.9583 22.6875 67.125 22.5625C68.3333 22.3958 69.5833 22.3125 70.875 22.3125H73.3125L72.75 22.875L73.4375 22.9375L73.0625 23.9375C73.3541 24.0625 73.5625 24.1667 73.6875 24.25C73.8541 24.2917 74 24.3542 74.125 24.4375L74.5625 25.0625C74.7708 25.1875 74.9583 25.3958 75.125 25.6875C75.2916 25.9375 75.3958 26.2917 75.4375 26.75L75.25 27.375L72.3125 31.125L71.9375 31.625L71.3125 31.4375C70.5208 31.3958 69.7708 31.4792 69.0625 31.6875C68.7291 31.7708 68.375 31.875 68 32C67.625 32.0833 67.25 32.125 66.875 32.125C65.875 32.2917 65.0416 32.4375 64.375 32.5625C63.7083 32.6458 63.0416 32.7292 62.375 32.8125C61.4583 32.9792 60.5625 33.1458 59.6875 33.3125C58.8541 33.4375 58.0625 33.6458 57.3125 33.9375C56.8541 33.9792 56.5833 34 56.5 34C56.4166 33.9583 56.3333 33.9375 56.25 33.9375C55.8333 33.9375 55.4166 34 55 34.125C54.5833 34.25 54.1875 34.375 53.8125 34.5C53.5625 34.7083 53.3958 34.9375 53.3125 35.1875C53.2291 35.3958 53.1458 35.625 53.0625 35.875C52.9791 36.1667 52.8541 36.4583 52.6875 36.75C52.5625 37 52.3958 37.2708 52.1875 37.5625L52.25 38.6875C51.875 38.7708 51.6875 38.8333 51.6875 38.875C51.6875 38.875 51.6666 38.875 51.625 38.875C51.625 39.2083 51.5625 39.5208 51.4375 39.8125C51.3541 40.1042 51.2708 40.375 51.1875 40.625C51.1041 40.7917 51.0416 40.9375 51 41.0625C50.9583 41.1875 50.9375 41.3125 50.9375 41.4375C51.3541 42.1875 51.4583 43.0417 51.25 44C51.0833 44.7917 50.7708 45.5 50.3125 46.125C49.8541 46.7083 49.3125 47.1667 48.6875 47.5C48.0208 47.5833 47.5208 47.5625 47.1875 47.4375C46.8958 47.3125 46.5833 47.1875 46.25 47.0625C46.0416 46.9792 45.8333 46.9167 45.625 46.875C45.4166 46.7917 45.2083 46.7292 45 46.6875L44.25 46.0625C44.125 45.8125 43.9791 45.5833 43.8125 45.375C43.6458 45.125 43.4791 44.875 43.3125 44.625C43.1041 44.3333 42.8958 44.0417 42.6875 43.75C42.4791 43.4583 42.2916 43.125 42.125 42.75C41.8333 41.2917 41.7708 40.0833 41.9375 39.125C42.1458 38.125 42.4166 37.1458 42.75 36.1875C42.8333 35.8542 42.9166 35.5417 43 35.25C43.0833 34.9583 43.1666 34.6458 43.25 34.3125Z" fill="#FD3A69"/>
<path d="M116.44 47.528C114.947 47.528 113.603 47.144 112.408 46.376C111.256 45.5653 110.339 44.264 109.656 42.472L95 1.96H101.72L114.712 39.976C114.925 40.5307 115.16 40.9787 115.416 41.32C115.672 41.6613 116.013 41.832 116.44 41.832C116.909 41.832 117.272 41.6613 117.528 41.32C117.784 40.9787 118.019 40.5307 118.232 39.976L131.48 1.96H137.944L123.288 42.472C122.648 44.2213 121.731 45.5013 120.536 46.312C119.384 47.1227 118.019 47.528 116.44 47.528Z" fill="#2E2D2E"/>
<path d="M159.308 46.76C155.681 46.76 152.481 46.0987 149.708 44.776C146.977 43.4107 144.822 41.512 143.243 39.08C141.707 36.6053 140.939 33.7253 140.939 30.44C140.939 27.1973 141.601 24.296 142.924 21.736C144.246 19.1333 146.081 17.0853 148.428 15.592C150.774 14.0987 153.505 13.352 156.62 13.352C159.99 13.352 162.785 14.0773 165.004 15.528C167.265 16.9787 168.95 18.9413 170.06 21.416C171.169 23.848 171.724 26.5787 171.724 29.608C171.724 30.632 171.66 31.5707 171.532 32.424H147.212C147.425 34.4293 148.086 36.136 149.195 37.544C150.305 38.9093 151.713 39.9547 153.42 40.68C155.169 41.3627 157.089 41.704 159.18 41.704H167.692V46.76H159.308ZM147.147 28.264H165.771C165.771 26.856 165.494 25.384 164.939 23.848C164.385 22.312 163.446 21.0107 162.124 19.944C160.801 18.8347 158.966 18.28 156.62 18.28C154.657 18.28 152.971 18.792 151.563 19.816C150.198 20.7973 149.132 22.056 148.364 23.592C147.638 25.0853 147.233 26.6427 147.147 28.264Z" fill="#2E2D2E"/>
<path d="M179.039 46.76V23.4C179.039 20.4987 179.85 18.2373 181.471 16.616C183.135 14.952 185.418 14.12 188.32 14.12H195.04V19.176H189.408C187.957 19.176 186.847 19.6027 186.079 20.456C185.311 21.2667 184.927 22.376 184.927 23.784V46.76H179.039Z" fill="#2E2D2E"/>
<path d="M200.481 46.76V14.12H206.434V46.76H200.481ZM203.49 8.936C202.38 8.936 201.442 8.552 200.674 7.784C199.905 6.97333 199.521 6.03467 199.521 4.968C199.521 3.90133 199.905 2.984 200.674 2.216C201.442 1.40533 202.38 1 203.49 1C204.556 1 205.474 1.40533 206.242 2.216C207.052 2.984 207.458 3.90133 207.458 4.968C207.458 6.03467 207.052 6.97333 206.242 7.784C205.474 8.552 204.556 8.936 203.49 8.936Z" fill="#2E2D2E"/>
<path d="M215.284 46.76V41.704H230.9C232.436 41.704 233.63 41.2347 234.484 40.296C235.38 39.3147 235.827 38.2053 235.827 36.968C235.827 35.816 235.422 34.8133 234.611 33.96C233.843 33.064 232.713 32.616 231.219 32.616H224.628C221.47 32.616 218.931 31.848 217.011 30.312C215.134 28.7333 214.196 26.4507 214.196 23.464C214.196 21.8 214.601 20.264 215.411 18.856C216.222 17.448 217.353 16.3173 218.803 15.464C220.254 14.568 221.918 14.12 223.796 14.12H238.835V19.176H224.372C223.092 19.176 222.046 19.6027 221.236 20.456C220.468 21.2667 220.084 22.2053 220.084 23.272C220.084 24.3387 220.468 25.2773 221.236 26.088C222.046 26.856 223.177 27.24 224.628 27.24H230.9C234.398 27.24 237.065 28.072 238.9 29.736C240.777 31.4 241.715 33.7467 241.715 36.776C241.715 38.5253 241.289 40.168 240.436 41.704C239.582 43.1973 238.388 44.4133 236.852 45.352C235.316 46.2907 233.566 46.76 231.604 46.76H215.284Z" fill="#2E2D2E"/>
<path d="M249.033 46.76V41.704H264.65C266.186 41.704 267.38 41.2347 268.234 40.296C269.13 39.3147 269.577 38.2053 269.577 36.968C269.577 35.816 269.172 34.8133 268.361 33.96C267.593 33.064 266.463 32.616 264.969 32.616H258.378C255.22 32.616 252.682 31.848 250.762 30.312C248.884 28.7333 247.945 26.4507 247.945 23.464C247.945 21.8 248.351 20.264 249.161 18.856C249.972 17.448 251.103 16.3173 252.553 15.464C254.004 14.568 255.668 14.12 257.546 14.12H272.585V19.176H258.122C256.842 19.176 255.796 19.6027 254.986 20.456C254.218 21.2667 253.833 22.2053 253.833 23.272C253.833 24.3387 254.218 25.2773 254.986 26.088C255.796 26.856 256.927 27.24 258.378 27.24H264.65C268.148 27.24 270.815 28.072 272.65 29.736C274.527 31.4 275.465 33.7467 275.465 36.776C275.465 38.5253 275.039 40.168 274.186 41.704C273.332 43.1973 272.138 44.4133 270.602 45.352C269.066 46.2907 267.316 46.76 265.354 46.76H249.033Z" fill="#2E2D2E"/>
<path d="M283.232 46.76V14.12H289.184V46.76H283.232ZM286.24 8.936C285.13 8.936 284.192 8.552 283.424 7.784C282.656 6.97333 282.271 6.03467 282.271 4.968C282.271 3.90133 282.656 2.984 283.424 2.216C284.192 1.40533 285.13 1 286.24 1C287.306 1 288.224 1.40533 288.992 2.216C289.802 2.984 290.208 3.90133 290.208 4.968C290.208 6.03467 289.802 6.97333 288.992 7.784C288.224 8.552 287.306 8.936 286.24 8.936Z" fill="#2E2D2E"/>
<path d="M298.482 46.76V27.112C298.482 24.5947 299.058 22.312 300.21 20.264C301.362 18.1733 303.026 16.5093 305.202 15.272C307.378 13.992 310.002 13.352 313.074 13.352C315.292 13.352 317.489 13.8427 319.665 14.824C321.884 15.7627 323.591 17.448 324.786 19.88H324.85C326.087 17.448 327.815 15.7627 330.034 14.824C332.252 13.8427 334.492 13.352 336.753 13.352C339.783 13.352 342.386 13.992 344.562 15.272C346.738 16.5093 348.401 18.1733 349.553 20.264C350.705 22.312 351.281 24.5947 351.281 27.112V46.76H345.394V27.112C345.394 25.4907 345.01 24.0187 344.242 22.696C343.474 21.3733 342.428 20.328 341.105 19.56C339.826 18.792 338.354 18.408 336.689 18.408C335.068 18.408 333.575 18.8133 332.21 19.624C330.844 20.392 329.756 21.4373 328.945 22.76C328.177 24.0827 327.794 25.5333 327.794 27.112V46.76H321.906V27.112C321.906 25.5333 321.5 24.0827 320.689 22.76C319.921 21.4373 318.855 20.392 317.49 19.624C316.167 18.8133 314.674 18.408 313.01 18.408C311.388 18.408 309.916 18.792 308.594 19.56C307.314 20.328 306.289 21.3733 305.521 22.696C304.753 24.0187 304.37 25.4907 304.37 27.112V46.76H298.482Z" fill="#2E2D2E"/>
<path d="M375.966 47.528C372.638 47.528 369.673 46.7813 367.07 45.288C364.51 43.752 362.484 41.704 360.991 39.144C359.54 36.5413 358.815 33.64 358.815 30.44C358.815 27.24 359.54 24.36 360.991 21.8C362.484 19.1973 364.51 17.1493 367.07 15.656C369.673 14.12 372.638 13.352 375.966 13.352C379.294 13.352 382.238 14.12 384.798 15.656C387.401 17.1493 389.428 19.1973 390.879 21.8C392.372 24.36 393.118 27.24 393.118 30.44C393.118 33.64 392.372 36.5413 390.879 39.144C389.428 41.704 387.401 43.752 384.798 45.288C382.238 46.7813 379.294 47.528 375.966 47.528ZM375.966 42.472C378.228 42.472 380.19 41.9387 381.854 40.872C383.518 39.8053 384.82 38.376 385.759 36.584C386.697 34.7493 387.167 32.7013 387.167 30.44C387.167 28.1787 386.697 26.152 385.759 24.36C384.82 22.5253 383.518 21.0747 381.854 20.008C380.19 18.9413 378.228 18.408 375.966 18.408C373.748 18.408 371.785 18.9413 370.078 20.008C368.414 21.0747 367.113 22.5253 366.174 24.36C365.236 26.152 364.767 28.1787 364.767 30.44C364.767 32.7013 365.236 34.7493 366.174 36.584C367.113 38.376 368.414 39.8053 370.078 40.872C371.785 41.9387 373.748 42.472 375.966 42.472Z" fill="#2E2D2E"/>
</svg>
