<svg width="52" height="57" viewBox="0 0 52 57" fill="none" xmlns="http://www.w3.org/2000/svg">
<circle cx="26" cy="26" r="26" fill="#FFB9B9"/>
<path d="M39.5413 23.3642V18.6075C39.5413 12.7945 34.8129 8.03784 29.0353 8.03784H23.7819C18.0038 8.03784 13.2755 12.7945 13.2755 18.6075V23.3642L8.02286 37.1051C8.02286 39.7473 16.2543 45.0321 26.4086 45.0321C36.5628 45.0321 44.7943 39.7473 44.7943 37.1051L39.5413 23.3642ZM18.5289 40.7383C17.9846 40.7383 17.5438 40.2944 17.5438 39.7473C17.5438 39.1994 17.9846 38.7567 18.5289 38.7567C19.0735 38.7567 19.5139 39.1994 19.5139 39.7473C19.5139 40.2944 19.0735 40.7383 18.5289 40.7383ZM17.2157 26.535C17.2157 25.8083 17.581 24.7457 18.0259 24.1743C18.0259 24.1743 19.2741 22.5713 21.8121 22.5713C23.1 22.5713 23.9984 23.1669 23.9984 23.1669C24.6019 23.566 25.0954 24.4871 25.0954 25.2135V27.1955C25.0954 27.5585 24.5046 27.8561 23.7823 27.8561H18.5289C17.8065 27.8565 17.2157 27.2613 17.2157 26.535ZM22.4683 39.7473H21.1552V37.1051L22.4683 35.7836V39.7473ZM25.7516 39.7473H23.7819V34.4625H25.7516V39.7473ZM24.4384 33.1409V31.1593C24.4384 30.0642 25.3214 29.1776 26.4086 29.1776C27.4962 29.1776 28.3783 30.0642 28.3783 31.1593V33.1409H24.4384ZM29.0353 39.7473H27.0656V34.4625H29.0353V39.7473ZM31.6616 39.7473H30.3484V35.7836L31.6616 37.1051V39.7473ZM34.2883 40.7383C33.7437 40.7383 33.3032 40.2944 33.3032 39.7473C33.3032 39.1994 33.7437 38.7567 34.2883 38.7567C34.8321 38.7567 35.2729 39.1994 35.2729 39.7473C35.2729 40.2944 34.8321 40.7383 34.2883 40.7383ZM34.2883 27.8565H29.0353C28.3125 27.8565 27.7221 27.5585 27.7221 27.1959V25.2139C27.7221 24.4871 28.2153 23.566 28.8191 23.1673C28.8191 23.1673 29.7176 22.5717 31.0054 22.5717C33.5447 22.5717 34.7916 24.1747 34.7916 24.1747C35.237 24.7457 35.6014 25.8083 35.6014 26.535C35.6014 27.2613 35.0098 27.8565 34.2883 27.8565ZM42.4054 37.7208C42.3277 37.7516 42.2468 37.7652 42.1676 37.7652C41.9041 37.7652 41.6565 37.6053 41.5564 37.3447L36.7806 25.003C35.5177 21.8285 33.9565 20.5892 31.2138 20.5892C29.3944 20.5892 27.8676 21.7245 27.8537 21.7368C27.0431 22.3481 25.7749 22.3452 24.9639 21.7368C24.9504 21.7245 23.4088 20.5892 21.603 20.5892C18.861 20.5892 17.2999 21.8285 16.0349 25.0084L11.2612 37.3447C11.13 37.6846 10.7476 37.8532 10.411 37.7208C10.0739 37.5893 9.90596 37.2062 10.0379 36.865L14.8133 24.5241C16.278 20.8387 18.3082 19.2681 21.603 19.2681C23.8562 19.2681 25.6756 20.6221 25.7516 20.6784C26.0956 20.939 26.7219 20.939 27.0651 20.6784C27.1415 20.6221 28.9617 19.2681 31.2134 19.2681C34.5085 19.2681 36.5383 20.8387 38.0018 24.5188L42.78 36.865C42.9108 37.2062 42.7441 37.5893 42.4054 37.7208Z" fill="#FD3A69"/>
</svg>
